<svg xmlns="http://www.w3.org/2000/svg" width="30" height="30" viewBox="0 0 30 30">
    <g fill="none" fill-rule="evenodd">
        <circle cx="15" cy="15" r="14" fill="#3F3F3F" stroke="#54EA7C" stroke-width="2"/>
        <path fill="#EA760E" d="M8.393 15.844l-.878-5.255a.652.652 0 0 1-.011-.213.205.205 0 0 1 0-.049.014.014 0 0 1 0-.009v-.043a.362.362 0 0 1 .025-.077l.012-.03a.402.402 0 0 1 .052-.1.814.814 0 0 1 .073-.092c.011-.005.011-.014.011-.014l.05-.047a.488.488 0 0 1 .087-.065.609.609 0 0 1 .117-.063.51.51 0 0 1 .074-.027.35.35 0 0 1 .057-.016.772.772 0 0 1 .193-.023l.085.025a.233.233 0 0 1 .05 0h.04a.738.738 0 0 1 .26.1l.077.055 2.595 2.163.008.006c.163.129.405.11.543-.042l2.466-2.745a.77.77 0 0 1 .175-.157l.058-.034A.822.822 0 0 1 14.916 9h.154c.108.012.211.044.304.095l.058.035a.698.698 0 0 1 .15.128l.025.028 2.463 2.74.007.007a.404.404 0 0 0 .543.029l2.632-2.176s-.025.02 0 0a.965.965 0 0 1 .135-.086l.06-.026a.453.453 0 0 1 .063-.021.46.46 0 0 1 .068-.016h.04a.759.759 0 0 1 .18 0 .4.4 0 0 1 .067 0 .393.393 0 0 1 .063.012c.02.004.039.01.058.016.025.008.05.017.073.027a.592.592 0 0 1 .117.064l.016.009a.677.677 0 0 1 .121.103c.012.005.012.014.012.014a.836.836 0 0 1 .084.113.43.43 0 0 1 .04.08l.012.028c.012.025.02.05.025.078a.324.324 0 0 1 0 .043c.019.09.019.18 0 .27l-.893 5.256-.246 1.44v.054l-.031.326a.376.376 0 0 1-.385.33H9.054a.376.376 0 0 1-.385-.33l-.03-.331v-.054l-.246-1.44zM9 19.5h12a1.5 1.5 0 0 1-1.5 1.5h-9A1.5 1.5 0 0 1 9 19.5z"/>
    </g>
</svg>
